<?xml version="1.0" encoding="UTF-8"?>
<!DOCTYPE svg PUBLIC "-//W3C//DTD SVG 1.1//EN" "http://www.w3.org/Graphics/SVG/1.1/DTD/svg11.dtd">
<!-- Creator: CorelDRAW -->
<svg xmlns="http://www.w3.org/2000/svg" xml:space="preserve" width="12in" height="8in" style="shape-rendering:geometricPrecision; text-rendering:geometricPrecision; image-rendering:optimizeQuality; fill-rule:evenodd; clip-rule:evenodd"
viewBox="0 0 12 8"
 xmlns:xlink="http://www.w3.org/1999/xlink">
 <defs>
  <style type="text/css">
   <![CDATA[
    .fil2 {fill:#FEFEFE}
    .fil0 {fill:url(#id0)}
    .fil1 {fill:url(#id1)}
   ]]>
  </style>
  <linearGradient id="id0" gradientUnits="userSpaceOnUse" x1="4.2811" y1="3.72105" x2="9.7648" y2="3.72105">
   <stop offset="0" style="stop-color:#DF2C64"/>
   <stop offset="1" style="stop-color:#433D58"/>
  </linearGradient>
  <linearGradient id="id1" gradientUnits="userSpaceOnUse" xlink:href="#id0" x1="2.54529" y1="4.03765" x2="7.64386" y2="4.03765">
  </linearGradient>
 </defs>
 <g id="Layer_x0020_1">
  <metadata id="CorelCorpID_0Corel-Layer"/>
  <path class="fil0" d="M6.10333 4.02956l-0.258287 -0.170008 -0.0224724 -0.0169291c-0.0630354,-0.0709961 -0.264791,-0.211043 -0.27585,-0.219232 -0.33989,-0.251709 -0.834449,-0.442039 -1.26561,-0.425949 0.118673,0.0387913 0.121161,0.00947244 0.308169,0.098626 0.0987402,0.0470709 0.173035,0.0993228 0.249248,0.158843 0.0190512,0.014874 0.0324488,0.0258543 0.052811,0.0426772 0.021563,0.017811 0.0348307,0.0318701 0.0561969,0.0480276l0.529421 0.504024c0.1175,0.12048 0.237768,0.24552 0.359295,0.367598l0 0 5.51181e-005 5.11811e-005c0.0866181,0.0870118 0.173874,0.172524 0.261228,0.253799 0.0150512,0.0140039 0.0300472,0.0281496 0.0450118,0.0424094l0.108972 0.105398c0.494461,0.481709 1.11344,0.916535 1.85347,0.730413 0.238142,-0.0472402 0.448004,-0.195378 0.620319,-0.361256 0.119378,-0.0910551 0.23737,-0.219461 0.352602,-0.392142 0.048622,-0.0692283 0.0895984,-0.140594 0.124102,-0.213303 0.000330709,-0.000377953 0.000677165,-0.000814961 0.00100394,-0.00118504 0.00987008,-0.011248 0.0141417,-0.0213465 0.0138622,-0.0304567 0.547925,-1.2318 -0.839417,-2.84429 -2.38907,-1.88365 -0.0775276,0.0480591 -0.132539,0.0933937 -0.19887,0.139976l-0.368752 0.317661c-0.0356772,0.0354764 -0.0530591,0.0544252 -0.0877047,0.0858071 -0.0321457,0.0291181 -0.0674961,0.0519646 -0.088626,0.0889921 0.0762992,0.093563 0.542492,0.559787 0.558031,0.583594 0.0300591,-0.0149567 0.196606,-0.174823 0.250059,-0.222472l0.0822874 -0.0741496c0.0599213,-0.051311 0.105071,-0.0929606 0.168835,-0.143457 0.251449,-0.199134 0.613283,-0.336449 0.933201,-0.17772 0.363075,0.180138 0.560858,0.638339 0.367236,1.05268 -0.0632992,0.135457 -0.172437,0.257898 -0.301437,0.339689 -0.0765394,0.0474173 -0.175283,0.0899173 -0.294476,0.103567 -0.0647756,0.00536614 -0.114122,-0.00308661 -0.189709,-0.00365354 -0.200524,-0.0295197 -0.441925,-0.143862 -0.719028,-0.41572 -0.400909,-0.393323 -0.665969,-0.409803 -0.835528,-0.312551z"/>
  <path class="fil1" d="M6.8649 4.59955c0.155457,0.0678346 0.594539,0.196634 0.778957,0.168268 -0.0742323,-0.0340945 -0.111583,-0.0170276 -0.297728,-0.11102 -0.193815,-0.0978661 -0.270413,-0.190654 -0.407276,-0.304689l-0.362787 -0.35285c0.000822835,-0.00101575 8.66142e-005,-0.00186614 -0.00258268,-0.00251181l-0.308193 -0.299748c-0.086878,-0.0846024 -0.168217,-0.169728 -0.251543,-0.254654l0 0 -1.5748e-005 -1.1811e-005c-0.267205,-0.272339 -0.567083,-0.578843 -0.893799,-0.778228 -0.361476,-0.220591 -0.79302,-0.346744 -1.21354,-0.253677l-0.00109843 0.000255906c-0.102862,0.0199055 -0.203657,0.0519803 -0.300425,0.0978425l0.00395276 -0.000515748c-0.639764,0.284008 -1.06354,1.02531 -0.961236,1.72273 0.0295118,0.201213 0.0916575,0.35837 0.170189,0.516445 0.0637874,0.128394 0.13552,0.208484 0.212909,0.308516 0.0181102,0.0234134 0.0228425,0.0221535 0.0442402,0.0422441l0.0810591 0.0841378c0.0602717,0.0677835 0.273055,0.205673 0.358232,0.249815 0.629051,0.326028 1.31724,0.129465 1.82343,-0.266791 0.0693701,-0.0543071 0.124598,-0.105055 0.189685,-0.157996 0.0192441,-0.0156457 0.0251339,-0.0268543 0.0434567,-0.0428937 0.0173661,-0.0151929 0.0318701,-0.0230709 0.048689,-0.0385984l0.26589 -0.253236c-0.055815,-0.0709606 -0.192472,-0.203516 -0.276256,-0.293398l-0.281047 -0.291197c-0.0613937,0.0204528 -0.115374,0.103638 -0.165398,0.1465l-0.335307 0.289945c-0.0505984,0.040248 -0.124047,0.0908071 -0.188846,0.123921 -0.147531,0.0754016 -0.292398,0.135843 -0.485846,0.126732 -0.0885315,-0.00416929 -0.178858,-0.0300984 -0.24948,-0.0624961 -0.0625984,-0.0287126 -0.147953,-0.0893071 -0.187043,-0.125472 -0.376185,-0.348008 -0.364449,-0.916976 0.0724961,-1.24869 0.142071,-0.107854 0.279559,-0.134437 0.492461,-0.130787 0.314346,-0.0117283 0.66237,0.0862717 0.959602,0.237772l0.243661 0.143894c0.0212992,0.0145236 0.0421102,0.0292913 0.0623504,0.0442835 0.0284961,0.0210984 0.0780591,0.0617913 0.113917,0.0855669 0.046689,0.0371299 0.100949,0.0817835 0.154925,0.126874 0.0023937,0.00230315 0.0044685,0.00437795 0.00700787,0.00679134l0.011126 0.00838189c0.0151575,0.0127047 0.0302205,0.025378 0.0450157,0.0378661 0.000149606,0.00125591 0.000799213,0.00365748 0.00323622,0.0088189 0.00926378,0.00456299 0.017626,0.00979134 0.025563,0.0155315 0.0161181,0.0136535 0.0317402,0.0269331 0.0466339,0.039626 0.00530315,0.00467717 0.0108346,0.00944488 0.0167165,0.0142559 0.0113386,0.0096811 0.0221575,0.0189331 0.0323268,0.0276457 0.00888583,0.00941339 0.0158543,0.0183976 0.0293189,0.0290039 0.270339,0.212874 0.494177,0.432622 0.832398,0.565799z"/>
  <path class="fil2" d="M6.09378 4.01311l-0.111945 -0.0917165c-0.0130276,-0.0130984 -0.00380709,-0.00233071 -0.0117677,-0.0164921 -0.0181614,-0.0106102 -0.0409213,-0.027311 -0.0572598,-0.0401772 -0.0221575,-0.0174488 -0.0272992,-0.0306575 -0.0504921,-0.0481496 -0.0420709,-0.0317283 -0.0657362,-0.0627323 -0.105106,-0.0821299l0.252008 0.258366c0.0254016,0.0253543 0.0575906,0.063811 0.0830827,0.0816299l0.00148031 -0.0613307z"/>
  <path class="fil2" d="M5.70984 3.94541c-0.0200827,-0.0105591 -0.0806457,0.00353937 -0.106398,0.00822047 -0.00422441,0.00076378 -0.00914961,0.00210236 -0.0115394,0.00252756 -0.022374,0.00399213 -0.0301772,-0.0026063 -0.0348976,0.0167244 -0.00235039,0.00963386 -0.00337008,0.0404252 0.0126575,0.0546496 0.0171181,0.015189 0.0568504,0.00159055 0.077315,-0.00195276 0.0212598,-0.00367717 0.0645433,-0.00416142 0.0789921,-0.0295787 0.00924016,-0.0162559 0.00238189,-0.0408583 -0.0161299,-0.0505906z"/>
  <path class="fil2" d="M5.55655 3.92617l0.0966614 -0.0169173c0.0442441,-0.00903937 0.0511929,-0.0610551 0.00541339,-0.079122 -0.0205709,-0.00811811 -0.0783858,-0.0130276 -0.0968504,-0.00161811 -0.0361969,0.022374 -0.0321693,0.0720827 -0.00522441,0.0976575z"/>
  <path class="fil2" d="M5.65594 4.16068l-0.016563 -0.0417087c0.0170984,-0.00972835 0.066437,-0.0154961 0.064,-0.044685 -0.0026811,-0.032122 -0.0546929,-0.013378 -0.0718583,-0.0107165 -0.0357913,0.00554724 -0.0539213,-0.000519685 -0.0391299,0.0479724 0.00775197,0.0254134 0.0418228,0.0479252 0.0635512,0.0491378z"/>
  <path class="fil2" d="M5.56281 3.78973c0.0305551,-0.00845669 0.0261299,-0.00936614 0.0308898,-0.0407598 0.0020748,-0.0136654 0.00489764,-0.042374 -0.0195984,-0.0546614 -0.0352913,-0.0177126 -0.0582795,0.066122 -0.0112913,0.0954213z"/>
  <path class="fil2" d="M5.81138 3.66298c0.010878,0.0205551 0.0195079,0.0279882 0.0413268,0.0367323l0.0664764 0.0153031c0.0227638,0 0.0554685,-0.00683465 0.0700945,-0.0153898l0.0302677 -0.0552323c6.29921e-005,-3.93701e-006 0.0306496,-0.00551575 0.030437,0.0112441 -0.000543307,0.0411024 -0.0544606,0.0659213 0.0292362,0.0926339 0.0139291,0.00444094 0.0112559,0.00038189 0.0171772,0.012563 0.0173504,0.0357008 0.050937,0.250354 0.0566575,0.300193 0.00816929,0.0712047 0.0150709,0.14276 0.0227441,0.215157 0.00262598,0.0248228 0.00688189,0.0239606 0.0212913,0.0381811l0.188874 0.227453c0.00644882,0.00820079 0.00721654,0.00888976 0.013563,0.0161732 0.00637008,0.00730709 0.00676378,0.00940945 0.0131496,0.0165906l0.115268 0.122626c0.0136969,0.0138583 0.0121024,0.0175945 0.0289921,0.0304843 0.0171063,0.0130551 0.0782677,0.0775472 0.10678,0.101386 0.00756693,0.00632283 0.00895669,0.006 0.0165906,0.0131457 0.0207953,0.0194567 0.0416614,0.0375512 0.063563,0.0553898 0.0605394,0.0492992 0.106677,0.082437 0.166209,0.127453 0.0127638,0.00964961 0.022626,0.0161457 0.0350472,0.0244213 0.0243858,0.0162441 0.0456535,0.0314409 0.0713504,0.0476024 0.0660984,0.0415709 0.196126,0.120531 0.264413,0.151909 0.0157244,0.00722835 0.0256811,0.0108898 0.0409134,0.0185591 0.0537953,0.0270866 0.110669,0.048878 0.166563,0.0713386 0.214287,0.0861181 0.515642,0.14713 0.740213,0.102374 0.103205,-0.0205669 0.234323,-0.0546102 0.324264,-0.103213l0.136295 -0.0792992c-0.0114567,0.00266929 -0.012185,0.00490157 -0.0246575,0.00879528l-0.0873031 0.0242165c-0.0542795,0.0162126 -0.18778,0.0396417 -0.248484,0.0414528 -0.0457441,0.00136614 -0.0922874,-0.000389764 -0.137634,-0.000149606 -0.0902165,0.000488189 -0.182413,-0.0146417 -0.257992,-0.0319449 -0.154161,-0.0352874 -0.397626,-0.197854 -0.538902,-0.291791 -0.110445,-0.0734252 -0.1865,-0.139909 -0.288102,-0.224866l-0.111685 -0.103913 -0.159886 -0.167232c-0.0905197,-0.0977008 -0.199059,-0.239429 -0.276516,-0.344248 -0.0211614,-0.0286378 -0.039685,-0.0552402 -0.0596496,-0.0853228 -0.065378,-0.0985118 -0.105449,-0.160803 -0.170047,-0.268583 -0.0336929,-0.0562087 -0.0389134,-0.0813228 -0.0904961,-0.125098 -0.0295827,-0.0250984 -0.226256,-0.131177 -0.240539,-0.131177 -0.0424173,0 -0.062563,0.0599488 -0.135343,0.0802598 -0.0265433,0.00740157 -0.0371339,0.00383071 -0.0505197,0.0238228z"/>
  <path class="fil2" d="M3.29856 2.67049c0.0787717,-0.0377992 0.284339,-0.0714094 0.37176,-0.0705906 0.0228425,0.000216535 0.0302362,-0.00274409 0.048315,-0.00382283l0.158252 0.00905906c0.187665,0.0262126 0.349531,0.0696614 0.514476,0.150902 0.0141457,0.00696457 0.0239764,0.0104685 0.0374173,0.0183425 0.0358937,0.0210197 0.0728543,0.037 0.108783,0.0584921 0.213343,0.127614 0.36439,0.274823 0.558551,0.419063 0.030437,0.0240709 0.0604331,0.0481929 0.0879724,0.0755866 0.0111535,0.0110866 0.0185197,0.0145315 0.0297756,0.0259764 0.0101378,0.0103071 0.0185354,0.0166024 0.0299606,0.0258031l0.249524 0.196535c0.0128583,0.00955906 0.0181496,0.0158386 0.0290236,0.0267362 0.0201535,0.020185 0.036626,0.0367598 0.0622953,0.0492205 0.0287953,0.0139764 0.0396575,0.0343583 0.0445709,0.0669409 0.00237402,0.0157244 -0.00524409,0.0430433 -0.00743307,0.0594764 0.0412677,0.00343307 0.104673,0.0323937 0.102594,0.0755512l-0.00966535 0.0471142c0.0368031,0.00857087 0.0628031,0.0807992 0.0363346,0.110681 -0.0491811,0.0451969 -0.00355906,0.0330906 -0.0140315,0.0640276 -0.00688189,0.0203346 -0.0483228,0.0483819 -0.0483228,0.070626 0,0.0245433 0.0204055,0.0889528 0.0280394,0.105559 0.079626,0.0296417 0.0398346,-0.016689 0.0320591,-0.109992 0.033122,0 0.0318268,-0.0211575 0.0360669,0.0234921 0.00376772,0.0396339 0.00625984,0.135528 0.0346181,0.137189 0.0263858,0.00155118 0.0407638,0.00901969 0.051311,-0.00305906 0.00915748,-0.0104882 0.0104921,-0.042311 0.00169685,-0.0767717l-0.0165197 -0.106157c0.0115197,-0.0026811 0.0281772,-0.0136496 0.0338701,0.00304331 0.016874,0.0495157 0.0133504,0.197228 0.0789646,0.206567 0.0266654,0.00379528 0.0363031,0.00820079 0.0446181,-0.00824803 0.0243307,-0.0481496 -0.020874,-0.175606 -0.0310669,-0.234815 0.0459409,-0.00765748 0.0323819,0.00490551 0.0424764,0.0653228 0.0045,0.0269094 0.00825984,0.0503819 0.0135236,0.075685 0.0101693,0.0488543 0.0239094,0.103248 0.0478543,0.112819 0.0601535,0.0240551 0.0588465,-0.00457874 0.0614961,-0.0471772 -0.0146535,-0.0978622 -0.0372835,-0.466457 -0.0919291,-0.510535l-0.0585512 -0.041815c-0.0620827,0.0328543 -0.157661,0.0136378 -0.205512,-0.0398228 -0.0298976,-0.0333976 -0.000637795,-0.0672874 0.0359843,-0.0776614 0.0196693,-0.0055748 0.039815,-0.0075315 0.0542677,-0.0163543 0.015185,-0.00927559 0.0265236,-0.0228504 0.0372008,-0.0371457 -0.146154,-0.0390276 -0.737732,-0.679902 -1.06069,-0.84252l-0.157264 -0.0806339c-0.311413,-0.149713 -0.775087,-0.223067 -1.11137,-0.112591 -0.0897283,0.0294764 -0.18152,0.063378 -0.260035,0.115398 -0.0134882,0.00893307 -0.0270945,0.00890551 -0.0312598,0.0245039z"/>
 </g>
</svg>
